<svg viewBox="0 0 200 200" xmlns="http://www.w3.org/2000/svg">
  <defs>
    <linearGradient id="bgGrad" x1="0" y1="0" x2="1" y2="1">
      <stop offset="0%" stop-color="#7C3AED"/>
      <stop offset="100%" stop-color="#EC4899"/>
    </linearGradient>
    <linearGradient id="starGrad" x1="0" y1="0" x2="0" y2="1">
      <stop offset="0%" stop-color="#FEFCE8"/>
      <stop offset="100%" stop-color="#FEF08A"/>
    </linearGradient>
  </defs>
  <rect width="200" height="200" rx="44" fill="url(#bgGrad)"/>
  <rect x="8" y="8" width="184" height="184" rx="38" fill="white" opacity="0.06"/>
  <!-- 5-point star, center 100,108, outer r=68, inner r=28 -->
  <polygon points="100,40 116.5,80.3 164.7,82.0 126.6,111.7 140.0,158.0 100,131 60.0,158.0 73.4,111.7 35.3,82.0 83.5,80.3"
    fill="url(#starGrad)"/>
  <!-- Eyes -->
  <circle cx="87" cy="101" r="6.5" fill="#4C1D95"/>
  <circle cx="113" cy="101" r="6.5" fill="#4C1D95"/>
  <!-- Eye shine -->
  <circle cx="89.5" cy="98.5" r="2.2" fill="white"/>
  <circle cx="115.5" cy="98.5" r="2.2" fill="white"/>
  <!-- Rosy cheeks -->
  <circle cx="76" cy="115" r="9" fill="#F472B6" opacity="0.42"/>
  <circle cx="124" cy="115" r="9" fill="#F472B6" opacity="0.42"/>
  <!-- Smile -->
  <path d="M 82 117 Q 100 132 118 117" stroke="#4C1D95" stroke-width="4.5" fill="none" stroke-linecap="round"/>
  <!-- Sparkles -->
  <circle cx="153" cy="52" r="4" fill="white" opacity="0.55"/>
  <circle cx="44" cy="46" r="3" fill="white" opacity="0.45"/>
  <circle cx="161" cy="151" r="3" fill="white" opacity="0.4"/>
  <g stroke="white" stroke-width="2.5" stroke-linecap="round" opacity="0.5">
    <line x1="163" y1="90" x2="171" y2="90"/>
    <line x1="167" y1="86" x2="167" y2="94"/>
  </g>
  <g stroke="white" stroke-width="2" stroke-linecap="round" opacity="0.38">
    <line x1="33" y1="130" x2="40" y2="130"/>
    <line x1="36.5" y1="126.5" x2="36.5" y2="133.5"/>
  </g>
</svg>
