<svg xmlns="http://www.w3.org/2000/svg" viewBox="0 0 480 480"><defs><clipPath id="cc"><circle cx="240" cy="240" r="238"/></clipPath></defs><circle cx="240" cy="240" r="238" fill="#4EA8DE"/><g clip-path="url(#cc)"><svg x="42" y="66" width="396" height="396" viewBox="0 0 480 480" fill="none"><mask id="viewboxMask"><rect width="480" height="480" rx="0" ry="0" x="0" y="0" fill="#fff" /></mask><g mask="url(#viewboxMask)"><g transform="matrix(.85775 0 0 .85427 52 47)"><path d="M264 38.6s131.4 20.6 121.4 208.1c0 .7 15.2 10.9 16.4 12a77.1 77.1 0 0 1 23.4 36.3c13.9 51.3-35.7 104.2-75.8 118.2a155 155 0 0 1-46.7 8.3c-103.1 3-239.7-62.7-246.7-191a202.7 202.7 0 0 1 15.1-83.9c0 .1 57.4-142.5 192.9-108Z" fill="#e2ba87"/><path d="M388.7 248.7a57 57 0 0 0-3.2 10.5 40 40 0 0 0 8.5 30.4 42.3 42.3 0 0 0 33 15.7c-3.2-31.7-29-50.7-38.3-56.6ZM203.5 332c24.4-5.2 39.6-31 33.9-57.5-5.7-26.5-30.2-43.7-54.6-38.5-24.4 5.3-39.5 31-33.8 57.6 5.7 26.5 30.1 43.7 54.5 38.5Z" fill="#DC2400" style="mix-blend-mode:multiply" opacity=".1"/><path opacity=".1" d="M323 257.9s20.9-19.9 37-1.2Z" fill="#000"/><path d="M128.7 356.9C59.3 391.7-3.7 304.4 16.5 255.3c12.9-31.4 50.4-33.8 72.1-5.2a185 185 0 0 1 29.1 59.1" fill="#e2ba87"/><path opacity=".1" d="M71.5 279c9 9 16.1 22.5 25 30-1.7-12.5-4.3-26-10.4-37.3-6.2-11.6-17.5-21-29-20.3-14.2 1-25.9 17.6-27.4 32.6 1-9 19-15 25.9-14.2 10.8 20.4 15 60.6 15 60.6 9-22.7 5.4-40.7 1-51.5Z" fill="#000"/></g><g transform="matrix(.85472 0 0 .855 19 -17)"><path d="M393.3 367c3 1.7 24.1-24.8 38.2-16.7 4.7 2.7 8.3 7.3 11 12.3 6 11 8 24.4 5.7 36.8a67 67 0 0 1-29 41.2c-37.4 25.5-67 20.7-106.8 6-31.4-11.7-74-35.6-65.2-78.7 15.6-76 146.1-1 146.1-1Z" fill="#873C41"/><path d="M318.9 366.5a44.8 44.8 0 0 1-33.6-4.4 31 31 0 0 1-14.3-24.6c26.3-10.3 67.3 3.6 94.5 15.6l-13 38.9c-12.8-2.1-26-9.4-29.3-22.1-.5-2-2.2-3.9-4.3-3.4ZM420.5 349.6c3.8 14.7-5.7 34.9-19.5 42.4-14 8.7-31.3 7-37.5 1.8l11.2-36.5c11.3 5.4 18.6 9.6 18.6 9.6 2.3 1.4 15-13.6 27.2-17.3Z" fill="#fff"/><path d="M400.3 443.8c-22-20.1-48.9-31.4-76.2-39.3-23.4-6.9-49.7-11.3-73.4-4.5 11 23.5 39.2 38.2 61.7 46.6 34.8 12.9 61.8 18.2 93 2.2-1.7-1.7-3.3-3.4-5.1-5Z" fill="#EE7E8B"/></g><g transform="matrix(.85472 0 0 .855 19 -17)"><path d="M340.9 308.9a48 48 0 0 0-43.1-6.7c-.2 0-.4-.2-.2-.4 21.5-24.5 37.8-6.1 43.6 6.8 0 .2-.2.4-.3.3ZM419 300.3c0 8-3.6 16.5-12.8 15.5-7.8-.8-9.7-11-9.7-16 0-8.7 4.4-17 10.8-17 6.8 0 11.7 9.5 11.7 17.5Z" fill="#2A1200"/><path d="M333.5 238.7a43.9 43.9 0 0 0-38.2 13.2c-3.2 3.4-4 9.3-.7 13 3 3.6 8.6 4.6 12 1l3.2-3c.4-.3 1.3-.8 1.6-1.2l.5-.4a37.7 37.7 0 0 1 6-3c.5 0 1.2-.4 1.7-.5a35.6 35.6 0 0 1 6.3-1.2h2l4.3.5c4.4.7 9-3.6 9.2-8.4.1-5.3-3.2-9.3-8-10ZM425.4 254.4a31.4 31.4 0 0 0-20.2-12.6c-2.1-.4-4.6.4-6.3 1.8a9.5 9.5 0 0 0-3.1 6.2c-.1 2.4.3 5 1.8 6.8a9 9 0 0 0 5.7 3.5l1.2.3c1 .4 2.1.8 3.2 1.4 1.2.8 2.3 1.7 3.3 2.7l1 1.3a8.8 8.8 0 0 0 5.8 3.5c2 .2 4.6-.4 6.2-2 1.7-1.5 3-3.6 3.2-6 .1-2.5-.4-5-1.8-7Z" fill="#71472D"/></g><g transform="matrix(.85472 0 0 .85667 18 -15)"><path d="M179.3 164.8c-43.7 0-79.1-38.4-79.1-85.9 0-47.4 35.4-85.9 79-85.9 43.7 0 79.1 38.5 79.1 86 0 47.4-35.4 85.8-79 85.8Z" fill="#e9b729"/><path d="M179.3 164.8c-43.7 0-79.1-38.4-79.1-85.9 0-8 1-15.6 2.8-22.9 12.7 9.5 61 22.8 152.5 0a93 93 0 0 1 2.8 23c0 47.4-35.4 85.8-79 85.8Z" fill="#000" fill-opacity=".2"/><path d="M137 305c4.6-46.4 79-85.4 79-85.4a66.5 66.5 0 0 1-8.5 20.3c-1.5 2.4 0 5.5 2.6 5.7 70 5.5 160.2-70.1 160.2-70.1 19 24.5 41 58.5 52.2 69.9 1.6 1.6 4.2.3 4.1-2.1C422.4 83 268 51.2 163.4 86.4 67.7 118.7-12 243.7 54.4 335c3.7-11.7 17.7-34.3 44-31.5 4.4 1 16 6 27.6 18 1.7 1.9 16 7 11-16.5Z" fill="#e9b729"/><path opacity=".1" d="M356 157.1s-8.3-9.8-26.3-8.2c0 0 12.7-7 21-6 0 0-22.6-16.8-55.6-6.2 0 0 23.3-16.4 41.7-14.3 0 0-19.6-8.6-32-6.6 0 0 9.8-12.2 22.6-11.8 0 0-10.2-18-26-23.7 0 0 31.6 9 40 15.5 18.3 7.8 35.3 30.7 35.3 30.7-5.7-3.3-14.7-2.5-14.7-2.5 14.7 9 26 25.8 26 25.8-7.2-5-15.8-3.3-15.8-3.3a76.7 76.7 0 0 1 18.4 31.9c-1.9-5.8-15.4-12.7-15.4-12.7a71.7 71.7 0 0 1 6.4 24.5l-11.3-14.7s-23 19.2-29 21.7c0 0 17.3-18 18.4-26.2 0 0-26 7-46.6 9.8 0 0 29-22 42.9-23.7Z" fill="#000"/></g><g transform="matrix(.85472 0 0 .85667 14 -12)"></g></g></svg></g></svg>